<?xml version="1.0" encoding="UTF-8"?>
<!-- Generated by Pixelmator Pro 2.4.1 -->
<svg width="1280" height="640" viewBox="0 0 1280 640" xmlns="http://www.w3.org/2000/svg" xmlns:xlink="http://www.w3.org/1999/xlink">
    <g id="164088447-04c066c7-4622-4dee-b861-be4f14e135a4">
        <g id="Group">
            <path id="Path" fill="#005ca8" stroke="none" d="M 277.499756 117.784912 C 172.446518 117.784912 87 202.989441 87 308.284729 C 87 413.580017 172.446518 498.784485 277.499756 498.784485 C 382.795044 498.784485 467.999481 413.337952 467.999481 308.284729 C 468.241547 202.989441 382.795044 117.784912 277.499756 117.784912"/>
            <path id="Path-copy" fill="#005ca8" stroke="none" d="M 277.808228 130.38678 C 177.94339 130.38678 96.716919 211.383179 96.716919 311.478119 C 96.716919 411.573059 177.94339 492.569458 277.808228 492.569458 C 377.903168 492.569458 458.899506 411.342926 458.899506 311.478119 C 459.129639 211.383179 377.903168 130.38678 277.808228 130.38678"/>
            <g id="g1">
                <path id="path1" fill="#1d1d1b" stroke="none" d="M 277.808228 507.986328 C 169.429565 507.986328 81.300003 419.856781 81.300003 311.478119 C 81.300003 248.889984 110.062912 191.364166 160.455536 153.85733 C 163.907089 151.326202 168.739258 152.016541 171.270401 155.468079 C 173.801529 158.919647 173.111221 163.75177 169.659668 166.282898 C 123.178802 200.798401 96.716919 253.722168 96.716919 311.478119 C 96.716919 411.342926 177.94339 492.569458 277.808228 492.569458 C 377.673065 492.569458 458.899506 411.342926 458.899506 311.478119 C 458.899506 240.37619 417.020721 175.48703 352.131592 146.263947 C 348.219849 144.423096 346.609131 140.051147 348.219849 136.139343 C 350.060669 132.227631 354.432617 130.616882 358.344391 132.227631 C 428.756012 163.981873 474.316467 234.163391 474.316467 311.478119 C 474.316467 419.856781 386.18689 507.986328 277.808228 507.986328 Z"/>
            </g>
            <path id="path2" fill="#d9e4eb" stroke="none" d="M 352.821899 525.704285 L 172.420914 525.704285 L 175.182144 500.853088 L 184.156174 479.913757 L 192.900101 463.346313 L 207.856827 454.602417 L 229.946747 440.335968 L 255.718307 421.697571 L 271.365326 407.661255 L 284.481232 393.164795 L 292.764923 387.642334 L 296.216492 392.474487 L 289.77359 403.289307 L 280.109253 419.396545 L 272.285767 436.654297 L 274.356659 447.008942 L 282.180176 456.443176 L 290.924133 463.346313 L 308.642059 465.647339 L 321.527863 464.496826 L 334.87384 456.443176 L 347.759644 444.707916 L 358.574493 436.654297 L 370.309753 432.282349 L 377.903168 435.273682 L 378.13327 437.574707 L 365.247467 443.557373 L 358.344391 449.079865 L 351.211212 458.744232 L 349.600433 467.258057 L 350.290771 484.515808 L 352.591797 503.61438 L 354.432617 521.332336 L 352.821899 525.704285 Z"/>
            <path id="path3" fill="#ffedd4" stroke="none" d="M 446.013763 525.704285 L 353.512238 525.704285 L 353.74231 504.074615 L 350.060669 470.709625 L 356.50354 452.991638 L 366.628113 443.787506 L 385.266449 436.424194 L 403.674713 441.946716 L 421.3927 453.912048 L 434.278473 467.948364 L 437.960144 482.674957 L 444.403046 499.472534 L 447.394348 516.960327 L 446.013763 525.704285 Z"/>
            <path id="path4" fill="#ffedd4" stroke="none" d="M 232.707977 132.917938 L 249.045303 126.935242 L 264.46225 136.369476 L 284.251129 129.46637 L 296.676697 127.625549 L 310.252808 131.997528 L 316.235474 141.20166 L 305.880829 144.883331 L 293.455261 148.565002 L 281.720001 154.77774 L 279.87915 163.981873 L 268.834198 172.035492 L 267.683685 199.877991 L 273.206146 234.393494 L 277.348022 270.289642 L 273.666382 285.706512 L 279.188843 297.441803 L 283.100616 317.920959 L 283.100616 335.178711 L 289.77359 344.382843 L 293.225159 382.349915 L 271.825531 404.209717 L 245.363663 409.732239 L 232.93808 423.538452 L 207.626709 443.097229 L 194.050613 445.628296 L 201.413925 411.803162 L 206.476196 397.536743 L 202.104248 359.799805 L 209.467545 308.486786 L 202.104248 288.237671 L 200.263412 272.82077 L 205.785889 232.092468 L 214.529816 192.974915 L 211.30838 175.717163 L 199.57309 166.513031 L 196.351669 158.919647 L 183.465866 152.016541 L 199.803207 145.113434 L 209.92775 140.28125 L 232.707977 132.917938 Z"/>
            <path id="path5" fill="#1d1d1b" stroke="none" d="M 190.368973 150.635895 C 194.971039 153.627228 201.644028 154.547607 200.03331 161.91095 C 204.175156 169.734467 213.379288 168.123779 220.972717 169.044159 C 226.495193 172.72583 221.432907 179.398834 223.503845 184.691162 C 222.813538 189.06311 226.955399 191.824402 225.344681 195.736176 C 221.663025 197.576965 222.12323 192.744781 220.972717 190.903992 C 219.822189 185.381531 219.592087 179.398834 216.600739 174.796753 L 215.220123 174.796753 C 215.680328 181.239624 219.362 187.682556 218.671677 195.27594 C 215.220123 197.807098 216.370651 201.948914 215.450226 205.400482 C 209.467545 233.012878 200.723618 262.00589 207.396606 292.149445 C 209.92775 298.362183 216.370651 303.654602 214.529816 311.247986 C 209.007339 334.718567 202.564438 363.251343 211.30838 387.182068 C 214.529816 396.616333 217.521164 405.820465 220.742615 415.2547 C 217.060959 416.635345 219.822189 422.387939 215.450226 421.927704 C 211.078262 418.706268 210.84816 412.493469 205.325684 411.573059 C 203.945068 413.413849 203.945068 415.945007 203.484863 417.785889 C 197.502182 425.839478 197.272064 434.353271 197.732285 444.938049 C 206.246094 444.017639 213.1492 435.96402 219.592087 429.291016 C 223.04364 424.228729 232.477875 420.316956 228.796219 413.413849 C 228.796219 403.51944 230.637039 400.758179 234.548813 412.493469 C 245.13356 404.900085 247.894791 392.704529 254.567795 382.580017 C 255.94841 381.199371 252.957077 395.695923 249.275421 403.059204 C 249.735626 404.209717 248.124908 405.130188 249.735626 405.590332 C 256.868835 404.900085 263.311737 402.368896 270.675018 402.138794 C 276.657715 397.766846 283.100616 392.244385 287.472565 386.261688 C 285.631744 380.96933 285.171539 380.739227 287.472565 374.526398 C 294.605774 367.393188 287.242462 351.28595 284.251129 343.002289 C 282.410278 342.081818 282.640411 339.320618 280.109253 339.780792 C 275.737305 348.52475 274.816895 358.649292 270.444916 367.393188 L 269.294403 367.393188 C 268.834198 352.896698 275.046997 340.241028 277.808228 326.434814 C 281.029663 315.15979 279.87915 301.353577 272.976044 292.149445 C 268.604095 293.53009 265.152527 297.21167 260.320374 295.600983 C 255.488205 289.388184 266.763275 285.706512 268.834198 279.953918 C 274.586792 271.670258 272.976044 259.474731 272.055634 249.35022 C 269.294403 227.950623 262.621399 207.471375 264.002014 184.921295 C 263.311737 180.549347 261.010681 176.40744 265.38266 172.955902 C 264.46225 171.115082 261.470886 169.504333 261.931091 166.743134 C 262.851501 165.362518 264.692352 164.442108 266.30307 165.362518 C 267.453583 167.203308 269.754608 168.353821 271.595428 167.203308 C 274.126556 165.132385 275.967407 162.141083 276.887817 159.149689 C 279.649048 154.087463 265.612762 146.033844 276.427612 147.41449 C 284.481232 156.388489 290.233795 140.741425 298.977722 141.661896 C 304.040009 141.20166 310.022675 143.962921 313.704346 139.821014 C 314.164551 136.829712 311.40332 134.528687 308.872162 132.687805 C 300.128265 126.244934 287.702667 130.156738 278.95874 134.068451 C 274.586792 137.289886 269.984711 140.28125 266.072968 143.502686 C 263.311737 143.04245 260.780579 141.661896 259.399963 139.130737 C 258.479553 136.829712 261.010681 134.758789 258.939758 133.148041 C 253.417267 134.758789 244.673355 136.139343 244.213135 143.962921 C 242.602432 144.653198 237.310043 143.732819 239.841171 147.41449 C 241.221802 148.795044 241.912109 151.326202 241.682007 152.706818 L 239.841171 152.706818 C 234.778915 146.494019 229.256424 140.741425 223.273743 136.139343 C 218.211472 132.227631 232.247772 134.528687 232.93808 134.988831 C 237.310043 135.909302 241.221802 132.917938 244.443237 129.696503 C 244.443237 127.855713 242.37233 129.006226 241.912109 127.395447 C 246.05397 123.023499 252.957077 126.475037 257.789246 127.855713 C 262.391296 129.46637 266.533173 134.068451 272.055634 132.227631 C 281.950073 125.094421 297.827209 120.492371 309.332397 127.855713 C 313.704346 130.156738 319.226807 133.838318 320.377319 138.900635 C 320.607452 141.891937 320.837555 145.343475 317.846191 146.954254 C 305.880829 148.334869 292.534851 146.494019 284.941437 157.078766 C 286.091949 169.964569 266.30307 171.805359 270.214813 185.611572 C 271.135254 218.516388 290.924133 248.889984 279.188843 282.485077 C 277.348022 287.317261 282.410278 290.538696 283.330719 294.910645 C 286.552155 305.725525 287.702667 317.460815 287.702667 329.65625 C 295.986389 344.152802 298.287415 361.640594 296.906799 379.588715 C 298.057312 382.119843 298.057312 384.881042 301.048676 386.721924 C 303.119598 384.881042 302.429291 381.659607 303.349701 379.358582 C 303.349701 361.18045 301.278778 342.542053 315.315063 330.346619 C 319.917145 321.832764 315.315063 308.94696 323.598785 302.734222 C 327.970764 299.282654 323.13858 288.697906 332.572815 290.768799 C 342.92746 279.953918 359.264801 278.113129 373.531219 281.7948 C 384.346069 284.325958 391.019043 295.831116 402.063995 297.671906 C 415.410004 303.884735 411.49826 319.071503 416.790649 329.65625 C 414.029388 339.780792 420.702393 351.516083 412.648773 359.799805 C 410.347748 365.092163 402.754333 369.234039 405.515564 375.446808 L 399.76297 389.252991 C 394.930817 394.54541 389.178253 399.147491 383.195557 403.059204 C 381.124634 403.51944 379.743988 402.368896 377.903168 402.138794 C 372.840881 407.431213 370.769989 414.33432 372.610779 421.697571 C 375.141937 430.901733 385.496582 426.529785 391.019043 431.822113 C 414.259491 432.052246 434.048401 452.991638 442.10202 473.240723 C 442.792297 486.126526 453.377045 494.640381 451.306152 508.446564 C 451.536224 514.199158 451.076019 519.491455 450.155609 524.553772 C 450.155609 524.553772 450.155609 524.783936 450.155609 524.783936 L 439.570862 524.783936 C 439.570862 524.783936 440.031067 524.093567 440.031067 524.093567 C 451.076019 505.915405 431.977448 491.188812 432.20755 473.240723 C 424.153931 462.425903 413.108978 449.770203 400.453308 444.938049 C 389.178253 450.230377 385.266449 432.512451 374.681732 441.486481 C 365.937805 444.477783 355.58316 451.611023 353.052002 461.505493 C 349.830566 481.524445 356.963776 500.623047 356.963776 521.102234 L 356.963776 525.013977 L 356.963776 525.24408 L 351.211212 525.24408 C 351.211212 525.24408 351.211212 525.24408 351.211212 525.013977 C 354.66275 497.171509 333.723328 460.124878 362.71637 441.716614 C 367.088318 439.415558 371.690369 438.72522 375.602142 436.424194 C 369.619476 432.972626 363.636749 437.344666 358.114288 439.875732 C 342.467255 450.000336 331.882507 468.638641 312.093628 468.868774 C 301.048676 470.24939 291.61441 467.488129 283.100616 462.195801 C 279.188843 454.372284 269.294403 450.46051 269.294403 440.796204 C 269.064301 431.361938 274.586792 424.458862 278.268433 416.635345 C 283.560791 409.041901 288.392975 401.218384 292.074646 393.164795 L 291.154205 392.244385 C 266.30307 421.007294 236.619736 440.335968 206.706314 457.593689 C 184.846481 473.470825 177.483185 498.552063 176.792877 524.783936 L 176.792877 525.013977 L 166.20813 525.013977 C 166.20813 525.013977 166.20813 523.863403 166.20813 523.633423 C 167.128525 497.631653 178.633698 476.001984 188.75824 453.912048 C 188.298035 431.592072 193.130219 411.342926 202.104248 392.934662 C 197.962372 374.296295 194.740936 351.976318 200.263412 332.877686 C 204.635376 318.151093 208.317032 299.972931 197.272064 287.087158 C 194.510834 276.962616 198.422577 267.068207 198.882797 257.173706 C 203.254761 235.313904 207.856827 213.223969 212.228775 191.364166 C 211.30838 180.779449 206.706314 169.964569 195.661346 166.282898 C 191.749588 162.371185 189.21846 156.848663 184.616394 153.85733 C 183.926086 154.547607 189.21846 149.945557 190.368973 150.635895"/>
            <path id="path6" fill="#1d1d1b" stroke="none" d="M 234.31871 288.928009 L 241.451904 289.158051 C 242.83252 291.689209 239.150879 291.689209 238.000351 292.839722 C 236.849838 293.069855 235.699326 293.299957 234.778915 294.45047 C 234.778915 297.671906 237.079941 299.972931 237.540146 302.964264 C 233.168198 302.273987 232.01767 297.21167 228.566132 294.910645 C 226.265091 294.220367 223.733948 293.760132 222.353333 291.689209 C 223.503845 290.078522 226.034973 290.538696 227.185486 288.928009 C 226.265091 283.175415 223.964066 277.652893 224.424255 272.130432 L 225.114578 271.900299 C 228.336014 277.652893 229.256424 284.325958 234.31871 288.928009"/>
            <path id="path7" fill="#ffedd4" stroke="none" d="M 349.370361 309.407196 C 353.74231 315.389893 359.955109 315.850067 365.4776 318.381195 C 370.539856 320.452118 373.761292 308.256683 376.982758 317.690918 C 379.283783 325.284302 388.02774 324.363922 392.169556 330.57666 C 394.700714 332.647644 398.152252 331.957275 400.223175 334.718567 C 401.143616 341.391541 394.010406 334.488434 392.169556 339.090515 C 386.877197 343.002289 392.399689 353.817108 383.195557 353.817108 C 378.823608 357.038544 382.045013 363.251343 380.434326 367.623291 C 379.743988 369.924347 380.434326 372.685608 381.814911 374.296295 C 383.425659 377.057556 387.1073 376.827423 389.86853 376.137146 C 392.399689 375.446808 395.851227 373.606018 398.152252 375.67691 C 395.391022 374.296295 391.939484 377.287659 390.098633 380.048859 C 391.709351 385.341309 380.204193 388.332581 386.647095 392.474487 C 389.86853 392.014282 391.939484 388.332581 394.700714 386.261688 C 394.930817 388.332581 393.089996 391.323975 391.249146 393.394897 C 388.94812 394.775543 386.647095 396.616333 383.655731 396.38623 C 383.655731 395.005585 382.045013 393.855072 381.124634 393.394897 C 375.37204 393.855072 372.840881 400.528137 368.699036 403.979675 C 363.636749 405.360229 357.193878 402.59903 353.972443 408.121521 C 344.998383 406.510742 334.413635 409.502136 325.669708 405.360229 C 319.917145 397.536743 304.960419 400.298004 306.571136 387.182068 C 309.5625 374.296295 306.110931 360.490082 309.5625 348.064514 C 310.943115 337.019592 327.280426 333.568054 325.669708 321.372528 C 330.501892 314.23938 341.546844 310.327606 341.546844 300.893341 C 342.237152 298.592316 344.998383 299.742828 346.609131 300.203064 C 347.989746 302.734222 348.449921 306.415802 349.370361 309.407196"/>
            <path id="path8" fill="#1d1d1b" stroke="none" d="M 344.538177 314.929657 C 345.918823 318.151093 345.918823 322.062866 347.069336 325.054199 C 345.458618 326.434814 343.617767 328.275635 341.316742 326.89505 C 339.475922 325.054199 338.555511 321.602631 335.564178 321.602631 L 329.811584 322.062866 C 332.342712 317.690918 339.245819 308.94696 344.538177 314.929657"/>
            <path id="path9" fill="#1d1d1b" stroke="none" d="M 379.974121 330.346619 C 382.965424 333.107819 381.814911 339.320618 380.894501 342.772186 C 378.593475 342.311951 376.752655 339.090515 374.681732 337.940002 C 372.380707 332.647644 359.725006 339.550751 364.096954 331.727173 C 368.238831 325.974579 374.911804 331.497131 379.974121 330.346619"/>
            <path id="path10" fill="#1d1d1b" stroke="none" d="M 338.785583 332.187408 C 339.245819 334.258331 341.316742 335.638947 341.086639 337.940002 C 338.325409 337.940002 335.103943 336.329224 332.11261 335.638947 C 332.572815 338.860382 328.891174 337.940002 327.050323 338.860382 L 326.590118 335.408844 L 325.669708 335.408844 C 326.129913 333.107819 328.891174 332.647644 330.731995 331.036896 C 333.493225 330.57666 336.254456 331.266998 338.785583 332.187408"/>
            <path id="path11" fill="#1d1d1b" stroke="none" d="M 347.989746 336.789459 C 348.680054 345.073212 336.944794 341.621643 336.484558 348.754883 C 335.794281 350.36554 334.643738 348.754883 333.723328 348.754883 C 332.342712 339.780792 344.308105 342.772186 346.609131 335.86908 C 347.529541 335.638947 347.529541 336.329224 347.989746 336.789459"/>
            <path id="path12" fill="#1d1d1b" stroke="none" d="M 373.761292 348.294647 L 372.380707 354.047211 C 368.468933 350.825775 364.557159 346.453827 359.494904 345.763489 L 359.494904 344.382843 C 363.866882 343.922699 368.468933 340.931305 371.920502 345.763489 L 373.761292 348.294647 L 373.761292 348.294647 Z"/>
            <path id="path13" fill="#1d1d1b" stroke="none" d="M 326.360046 346.453827 C 322.908478 346.914001 319.226807 348.064514 317.385986 351.746185 C 315.084961 358.189056 318.766632 367.393188 312.32373 371.765198 C 310.943115 369.924347 312.783936 367.163147 312.783936 364.631989 C 312.553833 359.109528 310.022675 351.976318 314.164551 347.144135 C 316.925781 343.23233 322.678375 345.763489 326.360046 346.453827"/>
            <path id="path14" fill="#1d1d1b" stroke="none" d="M 342.237152 346.914001 C 339.706024 346.683899 340.626434 352.206421 337.865204 349.215027 C 336.944794 347.374237 339.245819 345.763489 340.396332 345.763489 C 340.856537 346.223724 341.776947 346.223724 342.237152 346.914001"/>
            <path id="path15" fill="#1d1d1b" stroke="none" d="M 365.707672 352.666595 C 364.787292 352.896698 364.096954 354.277344 363.176575 353.126831 C 360.875519 352.206421 360.185211 349.675262 359.955109 348.064514 C 362.026062 349.215027 365.247467 349.905396 365.707672 352.666595"/>
            <path id="path16" fill="#1d1d1b" stroke="none" d="M 350.750977 351.055908 C 350.981079 352.666595 350.060669 353.586975 348.910156 354.507446 C 347.529541 354.967621 347.529541 354.047211 347.069336 353.126831 C 347.529541 351.746185 345.918823 351.28595 345.458618 350.36554 C 345.918823 348.52475 350.290771 348.294647 350.750977 351.055908"/>
            <path id="path17" fill="#1d1d1b" stroke="none" d="M 343.157593 358.419159 C 354.66275 357.268646 354.66275 374.296295 366.39801 374.066223 C 368.699036 375.216766 367.548523 377.977966 367.088318 379.358582 C 365.937805 382.119843 364.327087 384.420898 361.335724 385.111176 C 359.725006 382.580017 365.247467 378.668304 359.955109 377.287659 C 351.211212 374.066223 351.441284 361.410553 341.776947 360.029907 C 335.564178 358.649292 329.811584 356.808502 323.13858 357.268646 C 320.607452 358.879395 322.678375 363.481476 318.996704 363.481476 C 318.076294 359.339569 316.695679 354.277344 320.377319 351.516083 C 326.590118 357.038544 336.944794 352.896698 343.157593 358.419159"/>
            <path id="path18" fill="#1d1d1b" stroke="none" d="M 347.069336 369.464172 C 347.529541 370.844727 345.68869 371.304962 344.768311 371.765198 C 338.095306 374.986633 333.95343 368.773834 329.121277 365.552399 C 330.501892 360.26004 334.183533 365.782501 336.714691 365.552399 C 340.396332 366.933014 343.617767 368.31366 347.069336 369.464172"/>
            <path id="path19" fill="#1d1d1b" stroke="none" d="M 376.522552 379.818817 C 377.442963 382.119843 376.752655 385.111176 375.141937 386.951965 C 368.008698 393.855072 357.884186 392.704529 350.750977 398.917358 C 351.211212 395.46582 355.122955 394.085205 357.423981 391.784149 C 362.486237 388.792847 369.159241 387.642334 372.150574 381.199371 L 372.150574 372.225372 C 375.37204 372.91571 374.221527 377.517792 376.522552 379.818817"/>
            <path id="path20" fill="#ffedd4" stroke="none" d="M 298.977722 398.457153 C 298.517517 407.431213 296.906799 418.246033 304.040009 424.458862 C 306.110931 424.919006 303.119598 412.493469 304.500214 411.342926 C 304.500214 401.908691 310.022675 409.96228 308.872162 404.669952 C 312.32373 405.360229 311.40332 410.422546 314.164551 412.723572 C 315.315063 414.564362 317.155914 414.564362 318.996704 414.564362 C 320.147247 413.413849 316.925781 409.041901 316.695679 407.201111 C 318.306427 406.280701 324.05899 409.96228 325.439606 411.342926 C 326.360046 413.874084 323.828888 416.405212 325.439606 418.476135 C 333.263123 417.325623 343.157593 415.024597 350.290771 419.396545 C 350.520874 421.927704 347.759644 422.157837 345.918823 422.617981 C 336.024353 423.538452 328.661072 426.069519 334.87384 426.069519 L 365.937805 430.211426 C 356.733673 433.893097 347.989746 438.265045 341.086639 447.008942 C 331.652405 459.204468 318.766632 464.03656 303.579803 461.735535 C 292.764923 461.275391 282.870514 454.142151 277.578125 445.168152 C 278.498535 436.424194 278.03833 426.529785 286.552155 421.237427 C 286.322052 418.706268 284.941437 416.17511 286.091949 413.643982 C 293.685364 409.732239 292.304749 401.448517 296.906799 395.926056 C 297.827209 395.926056 298.977722 396.846436 298.977722 398.457153"/>
            <path id="path21" fill="#ffedd4" stroke="none" d="M 256.868835 415.484833 C 243.062622 427.9104 228.566132 438.72522 212.919098 447.239075 C 218.901779 439.875732 227.645706 435.04361 234.548813 427.680298 C 242.602432 424.228729 240.991684 411.112793 252.036652 414.33432 C 253.417267 415.024597 255.258102 414.564362 256.868835 415.484833"/>
            <g id="g2">
                <path id="path22" fill="#1d1d1b" stroke="none" d="M 165.287704 167.893646 C 162.986679 167.893646 160.685638 166.743134 159.074921 164.902283 C 156.543777 161.450714 157.234085 156.618622 160.685638 154.087463 C 194.740936 128.776093 235.239105 115.200012 278.03833 115.200012 C 306.110931 115.200012 333.03302 120.952576 358.574493 132.457764 C 362.486237 134.298553 364.096954 138.670502 362.486237 142.582306 C 360.645416 146.494019 356.273468 148.104767 352.361725 146.494019 C 328.891174 135.909302 304.040009 130.616882 278.268433 130.616882 C 238.920776 130.616882 201.644028 143.04245 170.349976 166.282898 C 168.509155 167.203308 166.898438 167.893646 165.287704 167.893646 Z"/>
            </g>
            <g id="Copa">
                <path id="path23" fill="#1d1d1b" stroke="none" d="M 344.896149 270.252899 C 344.896149 270.252899 352.965149 253.460724 354.927856 246.045929 C 357.108643 238.631226 357.5448 234.269623 364.305328 233.397308 C 371.065796 232.524994 386.54953 235.578094 408.139465 244.955536 C 429.729462 254.333038 450.447113 267.854004 448.920532 273.960297 C 447.393951 279.848419 440.633484 290.098236 437.362274 295.98642 C 434.091064 301.874542 427.984802 317.576385 427.548645 320.629486 C 427.548645 320.629486 434.309113 326.5177 436.053772 327.171906 C 437.798431 327.826111 442.378143 328.480408 442.81427 330.661194 C 443.250427 332.84201 443.250427 333.714325 441.941956 335.240906 C 440.633484 336.767426 430.819855 339.166321 421.87854 340.474823 C 412.937256 341.783325 392.001526 341.347137 370.847717 337.203613 C 349.693939 333.060089 344.241913 329.788879 344.241913 329.788879 C 344.241913 329.788879 325.268921 321.065674 315.67337 307.762756 C 306.07782 294.459839 309.785187 290.534424 313.274475 283.992004 C 316.763763 277.449585 327.885864 272.651794 333.119812 271.561371 C 338.571808 270.252899 344.896149 270.252899 344.896149 270.252899 Z"/>
                <path id="path24" fill="#1e2937" stroke="none" d="M 360.597961 236.23233 C 356.454407 238.631226 366.049957 249.535248 398.980103 264.146667 C 431.910248 278.758026 446.739746 275.268768 446.521637 272.651794 C 445.867401 266.981689 427.766724 267.854004 403.777863 257.16806 C 379.789001 246.482117 365.177612 233.615387 360.597961 236.23233 Z"/>
                <path id="path25" fill="#1e2937" stroke="none" d="M 344.896149 270.252899 L 332.247467 294.677917 C 332.247467 294.677917 318.072235 291.624817 326.141235 308.416962 C 326.141235 308.416962 310.87561 300.784149 314.364899 287.917419 C 317.854187 275.05069 344.896149 270.252899 344.896149 270.252899 Z"/>
                <path id="path26" fill="#3d4b63" stroke="none" d="M 358.199066 242.120514 C 358.199066 242.120514 352.528961 258.040375 349.693939 265.237061 C 346.858887 272.433685 342.279175 281.375 342.279175 281.375 C 342.279175 281.375 344.67807 287.917419 355.145935 294.24173 C 355.145935 294.24173 373.68277 258.91275 371.720032 254.769165 C 371.720032 254.769165 359.943695 247.136353 358.199066 242.120514 Z"/>
                <path id="path27" fill="#1e2937" stroke="none" d="M 409.447968 272.215607 C 409.447968 272.215607 434.527222 281.593109 446.08548 277.231476 C 446.08548 277.231476 436.708008 291.842834 431.910248 302.964966 C 427.112488 314.087067 425.367859 319.757172 425.367859 319.757172 C 425.367859 319.757172 415.990387 323.900696 406.176758 321.501801 C 396.363129 319.102905 388.730316 316.704071 388.730316 316.704071 L 409.447968 272.215607 Z"/>
                <path id="path28" fill="#e28e26" stroke="none" d="M 339.662231 279.412292 L 331.593262 296.422546 C 331.593262 296.422546 332.247467 305.145752 350.348145 316.922089 C 369.975403 329.788879 383.27832 331.31543 383.27832 331.31543 L 426.240143 326.081512 L 428.420959 318.448669 C 428.420959 318.448669 417.298889 327.389984 377.826294 309.725464 C 338.353729 292.060944 339.662231 279.412292 339.662231 279.412292 Z"/>
                <path id="path29" fill="#edc594" stroke="none" d="M 333.119812 300.566071 C 335.08252 304.273438 339.662231 310.161652 350.348145 317.140198 C 351.00238 317.576385 351.874725 318.012482 352.528961 318.448669 L 360.161774 301.002258 C 347.94928 293.805603 343.15152 287.69931 340.970703 283.992004 L 333.119812 300.566071 Z"/>
                <path id="path30" fill="#ce7b20" stroke="none" d="M 384.586792 312.778564 L 378.044403 330.225006 C 381.533661 331.097321 383.27832 331.533508 383.27832 331.533508 L 426.240143 326.299591 L 428.420959 318.666779 C 428.420959 318.666779 418.60733 326.5177 384.586792 312.778564 Z"/>
                <path id="path31" fill="#3d4b63" stroke="none" d="M 344.896149 270.252899 C 344.896149 270.252899 338.571808 270.252899 333.555969 271.561371 C 328.540131 272.651794 316.545685 277.449585 312.620239 283.992004 C 308.694794 290.316315 308.912872 296.858734 316.109528 307.544647 C 325.487 321.065674 344.67807 329.570801 344.67807 329.570801 C 344.67807 329.570801 345.550385 330.225006 348.167328 331.097321 C 356.236359 333.060089 367.576538 335.022797 373.464691 334.36853 C 381.097504 333.496216 414.245728 331.751617 426.6763 331.533508 C 435.617615 331.31543 440.415375 333.496216 442.596191 334.804718 C 443.468536 333.496216 443.468536 332.623901 443.032349 330.661194 C 442.596191 328.916504 439.979218 328.262299 438.01651 327.608093 C 436.926117 327.389984 435.835724 327.171906 434.527222 326.735718 C 422.532806 324.336884 395.708893 326.5177 385.677216 326.953796 C 375.645508 327.389984 360.161774 328.04422 350.348145 324.77301 C 335.954865 319.975281 308.694794 301.002258 315.237213 286.827026 C 321.779633 272.869873 345.114227 271.125183 345.114227 271.125183 L 344.896149 270.252899 Z"/>
            </g>
        </g>
        <g id="g3">
            <path id="Throwable" fill="#868686" fill-rule="evenodd" stroke="none" d="M 1044.445313 412.076172 C 1044.408813 412.075806 1044.372559 412.074371 1044.335938 412.070313 C 1043.815918 412.070313 1043.554932 411.809692 1043.294922 411.679688 C 1042.774902 411.289703 1042.255859 410.770691 1042.255859 409.470703 C 1042.255859 407.390717 1042.514526 405.439392 1042.644531 403.359375 C 1042.774536 400.759399 1042.905151 398.029694 1043.035156 395.429688 C 1043.165161 387.499695 1043.164063 379.700409 1043.164063 371.900391 C 1043.294067 362.020386 1043.425781 352.01001 1043.425781 342 C 1043.425781 337.709991 1043.424927 333.420868 1043.294922 329.130859 C 1043.294922 326.010864 1043.425049 324.189545 1042.125 323.019531 C 1041.474976 322.499542 1040.824707 322.369385 1039.134766 322.109375 C 1037.834717 321.849396 1035.755859 321.460602 1035.755859 319.640625 C 1035.885864 317.820618 1037.9646 317.299896 1038.224609 317.169922 C 1041.084595 315.869904 1044.205444 314.699554 1046.935547 313.269531 C 1050.055542 311.579529 1053.434448 309.369995 1054.734375 309.5 C 1054.86438 309.630005 1055.124756 309.629761 1055.384766 309.759766 C 1056.55481 310.669769 1056.425781 312.359131 1056.425781 312.619141 C 1056.425781 319.769135 1056.165161 326.139557 1056.035156 332.769531 L 1056.035156 350.189453 C 1056.035156 350.579437 1055.775757 352.529297 1057.595703 352.529297 C 1057.985718 352.529297 1058.374268 352.39975 1059.154297 352.009766 C 1061.104248 351.099762 1063.055908 349.929535 1065.005859 349.019531 C 1066.825806 348.239532 1070.594849 346.549683 1075.794922 346.679688 C 1082.164917 346.679688 1086.714844 349.020294 1088.794922 350.320313 C 1096.984863 355.39032 1101.794922 366.179901 1101.794922 375.669922 C 1101.794922 377.099915 1101.665649 379.310547 1101.015625 382.560547 C 1100.105591 386.850555 1096.335938 400.110687 1083.335938 406.220703 C 1081.125977 407.130707 1076.574829 408.949219 1070.464844 408.949219 C 1065.264893 408.949219 1061.364868 407.780853 1059.544922 407.130859 C 1055.774902 405.830841 1054.865112 404.789917 1052.785156 404.919922 C 1052.525146 404.919922 1051.875732 404.789703 1051.095703 405.179688 C 1049.535767 406.089691 1047.844604 408.950012 1046.804688 410.25 C 1046.678711 410.375946 1045.577759 412.087494 1044.445313 412.076172 Z M 1174.464844 409.339844 C 1170.564819 409.339844 1167.054077 408.430237 1163.414063 406.740234 C 1157.434082 403.880249 1147.164063 396.209412 1147.164063 379.439453 C 1147.164063 377.489441 1147.294189 372.419861 1149.244141 367.089844 C 1153.53418 355.389862 1164.19458 346.679688 1176.804688 346.679688 C 1187.4646 346.679688 1193.9646 352.789063 1196.304688 356.039063 C 1197.2146 357.209045 1199.685547 360.719757 1199.685547 365.009766 C 1199.685547 367.609741 1199.165894 368.649048 1198.255859 369.039063 C 1197.345825 369.299042 1195.914917 369.039063 1193.964844 369.039063 L 1191.105469 369.039063 C 1187.335449 369.169067 1183.563965 369.169922 1179.664063 369.169922 C 1173.164063 369.169922 1162.374634 369.300537 1161.724609 369.560547 C 1159.904663 370.080536 1160.035156 373.070313 1160.035156 373.070313 C 1160.035156 376.060303 1159.774536 388.930084 1169.394531 396.080078 C 1170.954468 397.250092 1174.725464 399.720703 1180.185547 399.720703 C 1183.435547 399.720703 1189.154297 398.550842 1195.654297 394.130859 C 1196.564209 393.61084 1197.475586 392.699219 1198.515625 392.699219 C 1199.555664 392.699219 1200.335083 393.479553 1200.205078 394.519531 C 1200.205078 395.55954 1199.165527 396.59906 1197.605469 398.289063 C 1193.445435 402.579041 1190.195435 405.310608 1184.605469 407.390625 C 1181.225464 408.560608 1178.234863 409.339844 1174.464844 409.339844 Z M 991.074219 408.953125 C 990.888977 408.955261 990.702515 408.953278 990.515625 408.949219 C 987.65564 408.949219 978.814453 408.299438 978.814453 398.939453 C 978.814453 395.039459 980.244751 389.969299 987.134766 385.029297 C 989.214783 383.599304 997.664368 378.400543 1005.984375 376.060547 C 1006.37439 376.060547 1008.715881 375.670013 1009.755859 374.5 C 1010.795837 373.329987 1011.185547 370.860443 1011.185547 367.480469 C 1011.185547 361.630463 1011.185608 358.379547 1010.015625 355.519531 C 1009.235596 353.439545 1007.674622 351.359375 1002.474609 351.359375 C 1000.004639 351.359375 993.765381 351.750854 990.775391 358.380859 C 989.865356 360.070862 989.34552 361.889221 988.435547 363.449219 C 986.225525 367.089203 982.195862 368 980.505859 368 C 978.685852 368 977.384766 366.959747 977.384766 365.009766 C 977.514771 363.189758 979.594727 359.679993 980.634766 358.25 C 988.824768 347.070007 1003.124512 346.939453 1006.894531 346.939453 C 1014.304504 346.939453 1018.07489 348.760712 1020.544922 350.970703 C 1023.794922 353.960693 1023.664063 356.819763 1023.664063 358.509766 C 1023.664063 361.889771 1023.275635 365.140625 1023.015625 368.390625 C 1022.62561 372.290619 1022.495239 376.18985 1022.365234 380.089844 C 1022.235229 382.819855 1021.974609 385.550385 1021.974609 388.150391 L 1021.974609 393.089844 C 1021.974609 393.349854 1021.974121 395.30069 1022.494141 396.470703 C 1023.404175 398.160706 1025.484619 399.330078 1027.304688 399.330078 C 1028.344604 399.330078 1029.904663 399.06955 1031.724609 397.769531 C 1033.024658 396.859528 1033.544312 395.949219 1034.324219 395.949219 C 1034.584229 395.949219 1036.015625 396.339752 1036.015625 397.509766 C 1036.015625 398.419769 1035.495239 399.459839 1035.365234 399.589844 C 1034.71521 400.889862 1033.545532 402.83905 1030.685547 404.789063 C 1029.385498 405.699066 1025.614624 408.169922 1020.804688 408.169922 C 1015.214661 408.039917 1012.224426 404.270081 1011.314453 402.580078 C 1010.924438 401.670105 1011.184753 400.890625 1009.884766 400.890625 C 1008.844727 400.890625 1008.324524 401.540955 1006.894531 402.710938 C 1005.724487 403.620941 1004.424988 404.399689 1003.125 405.179688 C 1001.739685 405.935303 996.817261 408.887573 991.074219 408.953125 Z M 1109.724609 407.650391 C 1108.164673 407.650391 1107.904297 406.480103 1107.904297 405.830078 C 1108.034302 403.490082 1110.894287 403.359375 1111.154297 403.359375 C 1112.064209 403.229401 1117.264648 402.970795 1118.304688 398.550781 C 1119.2146 394.390808 1118.954224 380.99939 1118.824219 367.609375 C 1118.824219 357.98938 1119.085938 348.23999 1119.085938 338.75 L 1119.085938 330.300781 C 1119.085938 328.740784 1119.215454 327.049988 1118.435547 325.75 C 1117.915527 324.709991 1116.874023 323.930389 1114.664063 323.150391 C 1114.534058 323.150391 1111.675781 322.630798 1111.675781 320.550781 C 1111.675781 320.030792 1112.065063 319.509155 1112.455078 319.119141 C 1113.105103 318.599152 1115.444214 318.210785 1117.654297 317.300781 C 1121.424316 316.000793 1124.416016 314.179291 1125.585938 313.529297 C 1127.666016 312.359283 1129.225586 311.320313 1130.265625 311.320313 C 1132.345581 311.320313 1132.345703 312.880402 1132.345703 313.400391 C 1132.345703 315.610382 1132.215942 317.559753 1132.085938 319.509766 C 1131.955933 324.709747 1131.695313 330.300842 1131.695313 335.630859 C 1131.435425 346.810852 1131.695313 357.859039 1131.695313 369.039063 C 1131.695313 375.929047 1131.564209 382.950714 1131.824219 389.970703 C 1131.824219 392.180695 1131.825806 398.419159 1133.255859 400.369141 C 1134.035889 401.669159 1136.115234 402.8396 1139.365234 403.099609 C 1140.145264 403.229614 1140.79541 403.230255 1141.445313 403.490234 C 1142.095337 403.750244 1142.875 404.660309 1142.875 405.570313 C 1142.875 406.610291 1141.445313 407.390625 1140.275391 407.390625 C 1138.975342 407.390625 1137.805908 407.130005 1136.505859 407 C 1134.035889 406.73999 1131.564819 406.609375 1128.964844 406.609375 C 1120.904907 406.609375 1115.835083 406.740601 1112.455078 407.390625 C 1112.065063 407.390625 1110.894653 407.650391 1109.724609 407.650391 Z M 1070.855469 405.179688 C 1072.545532 405.179688 1075.405151 404.920959 1078.785156 402.710938 C 1088.145142 396.860931 1088.275391 382.819153 1088.275391 380.869141 C 1088.275391 379.309143 1088.145142 374.760956 1086.455078 370.210938 C 1083.205078 361.110931 1075.015869 354.73999 1065.005859 355 C 1061.23584 355 1058.245117 356.169861 1057.205078 357.339844 C 1056.815063 357.859833 1056.554932 358.250793 1056.294922 359.550781 C 1055.904907 361.760803 1055.775391 368.780609 1055.775391 374.890625 C 1055.775391 379.440613 1055.774292 383.990784 1055.904297 388.800781 C 1056.034302 393.480804 1056.164063 397.639771 1059.414063 400.759766 C 1062.274048 403.489746 1067.215454 405.179688 1070.855469 405.179688 Z M 999.355469 401.539063 C 1001.695496 401.539063 1003.645935 400.890961 1005.335938 399.460938 C 1010.145935 395.820953 1010.404297 388.80069 1010.404297 383.470703 C 1010.404297 381.390717 1010.145264 380.220306 1009.365234 379.570313 C 1008.845215 379.180298 1008.325806 379.179688 1007.675781 379.179688 C 1005.725769 379.309692 1002.995483 380.089447 999.355469 382.689453 C 993.375488 387.109436 991.814453 391.400391 991.814453 394.650391 C 991.814453 400.760406 997.015503 401.539063 999.355469 401.539063 Z M 1165.105469 365.666016 C 1165.380249 365.670013 1165.609619 365.660156 1165.755859 365.660156 C 1168.22583 365.660156 1172.51416 365.270447 1178.494141 364.230469 C 1181.744141 363.710449 1185.254517 363.320099 1186.814453 360.330078 C 1187.594482 359.03009 1187.595703 357.860931 1187.595703 357.210938 C 1187.595703 356.430939 1187.465698 355.13031 1186.425781 353.570313 C 1184.085693 349.930298 1180.055908 349.929688 1178.755859 349.929688 C 1171.47583 350.059692 1164.974121 354.479401 1162.244141 361.109375 C 1162.114136 361.369385 1161.725464 362.150543 1161.855469 363.060547 C 1161.855469 365.384308 1163.914673 365.648682 1165.105469 365.666016 Z M 928.505005 384.51001 C 931.625 391.399994 934.61499 398.679993 937.60498 405.440002 C 937.60498 405.570007 938.255005 407 939.294983 407.910004 C 939.424988 408.040009 940.075012 408.559998 940.594971 408.559998 C 942.155029 408.559998 943.195007 405.440002 943.585022 404.399994 C 945.015015 400.76001 946.445007 396.859985 947.875 393.089996 C 950.474976 386.850006 953.205017 380.73999 955.934998 374.5 C 957.36499 371.119995 958.924988 367.609985 960.35498 364.230011 C 962.434998 359.290009 963.86499 355.910004 965.815002 354.220001 C 966.984985 353.049988 968.284973 352.660004 969.974976 352.269989 C 971.275024 352.01001 973.224976 352.01001 974.005005 350.709991 C 974.13501 350.579987 974.265015 350.320007 974.265015 349.929993 C 974.265015 349.149994 973.61499 348.23999 971.924988 348.23999 C 970.755005 348.23999 969.585022 348.5 968.414978 348.630005 C 966.594971 348.890015 964.905029 348.890015 963.085022 348.890015 C 960.484985 348.890015 958.015015 348.890015 955.544983 348.76001 C 954.765015 348.76001 953.984985 348.630005 953.075012 348.5 C 952.554993 348.5 952.034973 348.369995 951.515015 348.369995 C 949.955017 348.369995 949.304993 349.149994 949.304993 349.929993 C 949.304993 350.579987 949.695007 351.48999 950.994995 351.75 C 951.64502 351.880005 952.554993 351.880005 952.815002 351.880005 C 954.244995 351.880005 957.755005 352.01001 957.755005 356.690002 C 957.755005 358.380005 957.625 358.769989 956.715027 361.23999 C 955.414978 365.140015 953.984985 369.040009 952.424988 372.809998 C 951.38501 375.279999 950.344971 377.880005 949.304993 380.350006 C 948.13501 383.339996 946.705017 386.850006 946.315002 387.5 C 946.184998 387.630005 945.534973 388.279999 944.755005 388.279999 C 944.10498 388.279999 943.455017 387.5 943.065002 386.850006 C 942.414978 385.679993 942.155029 384.640015 941.765015 383.600006 C 940.594971 380.73999 939.164978 377.75 937.86499 374.76001 C 934.35498 367.089996 930.065002 356.170013 930.065002 354.609985 C 930.065002 353.829987 930.455017 353.179993 931.234985 352.790009 C 932.534973 352.269989 933.965027 352.399994 935.39502 352.399994 C 937.215027 352.399994 938.125 352.140015 938.905029 351.48999 C 939.034973 351.359985 939.424988 350.970001 939.554993 350.320007 C 939.554993 348.23999 937.344971 348.369995 936.955017 348.369995 C 935.655029 348.369995 934.224976 348.5 933.054993 348.630005 C 929.804993 348.76001 927.075012 349.019989 924.085022 349.149994 C 918.10498 349.540009 911.60498 349.670013 905.234985 349.670013 C 899.64502 349.670013 894.054993 349.540009 888.465027 349.279999 L 879.88501 348.890015 C 877.674988 348.76001 875.594971 348.630005 873.38501 348.630005 C 873.255005 348.630005 871.304993 348.369995 870.39502 349.279999 C 870.13501 349.540009 869.875 349.929993 869.875 350.320007 C 869.875 350.839996 870.13501 351.75 871.044983 352.269989 C 871.565002 352.399994 872.215027 352.529999 872.734985 352.660004 C 875.85498 353.179993 876.63501 353.179993 878.065002 354.220001 C 880.534973 356.170013 882.61499 362.149994 885.86499 369.429993 C 887.815002 373.720001 889.765015 378.140015 891.715027 382.429993 C 893.794983 387.23999 895.875 392.309998 898.085022 397.25 C 900.034973 401.670013 902.11499 406.480011 903.025024 407.649994 C 903.544983 408.429993 903.934998 408.559998 904.325012 408.559998 C 905.10498 408.559998 905.88501 407.779999 906.275024 407.130005 C 906.794983 406.480011 906.924988 405.570007 907.315002 404.790009 C 908.35498 402.059998 909.525024 399.459991 910.695007 396.730011 C 912.905029 391.920013 914.984985 386.980011 917.195007 381.910004 C 917.844971 380.480011 918.494995 379.179993 919.015015 377.880005 C 919.14502 377.48999 920.965027 372.420013 922.265015 372.420013 C 923.565002 372.420013 924.60498 375.799988 925.775024 378.269989 Z M 906.14502 352.269989 C 911.344971 352.269989 915.244995 353.440002 917.844971 358.119995 C 919.275024 360.589996 919.405029 362.670013 919.405029 363.709991 C 919.405029 366.829987 917.844971 370.730011 917.585022 371.25 C 916.804993 373.589996 915.89502 375.929993 914.984985 378.140015 C 913.164978 382.429993 911.215027 387.23999 909.39502 387.23999 C 908.35498 387.369995 907.705017 386.329987 907.315002 385.549988 C 906.664978 384.380005 906.14502 383.079987 905.494995 381.779999 C 903.804993 377.619995 901.984985 373.589996 900.294983 369.429993 C 899.255005 366.959991 895.484985 359.420013 895.484985 356.820007 C 895.484985 353.829987 898.344971 353.179993 898.994995 353.049988 C 900.815002 352.529999 904.325012 352.269989 906.14502 352.269989 Z M 831.914978 345.769989 C 818.525024 345.769989 805.914978 353.570007 800.715027 366.179993 C 799.804993 368.130005 798.244995 372.290009 798.244995 377.880005 C 798.244995 392.829987 808.905029 400.890015 813.065002 403.619995 C 820.474976 408.559998 827.625 409.079987 831.005005 409.079987 C 834.905029 409.079987 846.344971 408.299988 855.315002 399.589996 C 861.424988 393.73999 864.674988 385.809998 864.674988 377.100006 C 864.674988 371.640015 863.505005 359.940002 851.414978 351.880005 C 845.695007 347.980011 838.674988 345.769989 831.914978 345.769989 Z M 831.39502 349.149994 C 835.815002 349.149994 838.284973 350.450012 839.844971 351.48999 C 845.304993 355.130005 848.554993 363.059998 849.724976 369.429993 C 850.11499 371.899994 850.375 374.890015 850.375 377.359985 C 850.375 385.549988 848.034973 394.779999 842.315002 400.890015 C 838.155029 405.179993 834.515015 405.829987 831.784973 405.829987 C 828.664978 405.829987 825.934998 404.920013 823.594971 403.100006 C 818.914978 399.589996 812.934998 389.970001 812.804993 375.149994 C 812.804993 364.100006 816.054993 358.119995 819.044983 354.609985 C 823.205017 349.540009 828.924988 349.149994 831.39502 349.149994 Z M 768.474976 344.209991 C 767.044983 343.950012 765.875 345.769989 764.575012 347.070007 C 760.414978 351.48999 756.38501 352.790009 754.565002 353.570007 C 753.265015 353.959991 750.275024 354.609985 750.275024 356.559998 C 750.275024 356.950012 750.405029 357.600006 751.054993 358.25 C 751.445007 358.640015 751.575012 358.640015 752.094971 358.899994 C 756.125 360.980011 756.775024 363.059998 756.775024 367.350006 C 756.775024 372.160004 756.64502 376.579987 756.515015 380.869995 C 756.515015 383.209991 756.515015 397.119995 755.344971 399.589996 C 754.304993 402.320007 749.36499 403.230011 749.36499 403.230011 C 748.325012 403.48999 747.284973 403.359985 746.63501 404.399994 C 746.505005 404.790009 746.375 405.179993 746.375 405.440002 C 746.375 405.959991 746.765015 407.390015 748.325012 407.390015 C 748.715027 407.390015 749.234985 407.26001 749.625 407.26001 C 752.094971 406.869995 754.304993 406.73999 756.64502 406.480011 C 759.375 406.220001 762.234985 406.089996 765.094971 406.089996 C 767.825012 406.089996 770.294983 406.220001 772.89502 406.480011 C 775.234985 406.609985 777.575012 407 779.914978 407 C 780.434998 407 781.734985 407.130005 782.515015 405.959991 C 782.905029 405.440002 782.905029 405.179993 782.905029 404.920013 C 782.905029 404.01001 782.515015 403.359985 781.734985 403.100006 C 781.085022 402.839996 780.174988 402.970001 778.61499 402.839996 C 775.625 402.709991 770.554993 401.929993 769.255005 398.679993 C 768.60498 397.119995 768.60498 394.910004 768.60498 393.089996 C 768.60498 387.890015 768.86499 383.209991 768.994995 378.269989 C 769.38501 368.26001 768.734985 361.890015 773.025024 358.51001 C 773.284973 358.25 774.455017 357.470001 775.755005 357.470001 C 777.965027 357.470001 780.174988 359.549988 782.125 361.109985 C 784.594971 362.929993 786.155029 363.320007 787.715027 363.320007 C 792.13501 363.320007 794.734985 360.070007 794.734985 355.910004 C 794.734985 350.579987 790.835022 347.200012 785.89502 347.200012 C 783.164978 347.200012 780.565002 347.980011 775.88501 351.75 C 774.715027 352.660004 773.674988 353.570007 772.505005 354.480011 C 771.594971 355.130005 771.335022 355.519989 770.684998 355.519989 C 770.164978 355.519989 769.255005 355.26001 769.255005 353.959991 C 769.255005 353.179993 769.38501 352.399994 769.515015 351.75 C 769.64502 350.450012 769.775024 349.279999 769.775024 348.109985 C 769.775024 347.459991 769.905029 346.940002 769.905029 346.290009 C 769.905029 344.859985 768.994995 344.339996 768.474976 344.209991 Z M 692.945007 309.890015 C 692.034973 310.019989 691.255005 310.410004 689.695007 311.190002 C 686.705017 312.75 683.715027 314.179993 680.724976 315.350006 C 679.294983 316 677.86499 316.390015 676.434998 316.910004 C 674.875 317.429993 674.35498 318.339996 674.35498 319.25 C 674.35498 319.899994 674.875 320.549988 675.39502 320.809998 C 676.174988 321.329987 677.60498 321.589996 678.515015 321.850006 C 681.765015 322.890015 681.765015 324.839996 681.765015 327.959991 C 681.765015 331.079987 681.63501 334.200012 681.63501 337.320007 C 681.244995 351.359985 681.11499 365.269989 680.724976 379.309998 C 680.594971 385.290009 680.594971 391.399994 680.465027 397.380005 C 680.465027 399.329987 680.075012 400.369995 679.424988 401.149994 C 679.034973 401.799988 678.125 402.059998 677.344971 402.320007 C 675.784973 402.709991 673.705017 402.839996 672.405029 403.880005 C 671.88501 404.269989 671.625 404.660004 671.625 405.179993 C 671.625 406.220001 672.275024 407.390015 674.224976 407.390015 C 675.13501 407.390015 675.914978 407.130005 676.825012 407 C 679.554993 406.609985 682.674988 406.089996 688.784973 406.089996 C 691.125 406.089996 693.465027 406.220001 695.804993 406.480011 C 698.14502 406.73999 700.35498 407.130005 702.695007 407.130005 C 704.515015 407.130005 705.034973 406.220001 705.164978 405.309998 C 705.164978 404.140015 704.515015 403.619995 703.60498 403.359985 C 701.525024 402.839996 696.455017 402.970001 694.765015 401.410004 C 693.594971 400.369995 693.594971 397.25 693.594971 393.869995 C 693.594971 388.019989 693.724976 382.040009 693.724976 376.059998 C 693.724976 369.040009 693.205017 362.929993 699.054993 358.119995 C 700.61499 356.820007 703.60498 355 708.544983 355 C 711.14502 355 714.13501 355.649994 716.60498 357.079987 C 720.63501 359.549988 720.89502 362.670013 721.025024 367.220001 C 721.155029 368.649994 721.155029 370.079987 721.155029 371.51001 C 721.155029 375.929993 721.025024 380.350006 721.025024 384.899994 C 720.89502 387.23999 720.89502 389.579987 720.89502 391.920013 C 720.765015 396.600006 720.89502 399.200012 719.594971 401.019989 C 718.294983 402.970001 715.955017 402.709991 714.005005 402.970001 C 712.705017 403.230011 711.534973 403.359985 711.405029 404.920013 C 711.405029 405.829987 712.054993 407 713.744995 407 C 714.914978 407 716.085022 406.869995 717.255005 406.869995 C 720.765015 406.609985 724.14502 406.350006 727.655029 406.350006 C 730.255005 406.350006 732.984985 406.480011 735.585022 406.73999 C 736.494995 406.869995 737.405029 406.869995 738.315002 407 C 739.094971 407.130005 739.875 407.26001 740.525024 407.26001 C 741.955017 407.26001 742.344971 405.959991 742.474976 405.440002 C 742.474976 404.920013 742.085022 403.880005 740.655029 403.359985 C 740.39502 403.359985 739.875 403.230011 738.965027 403.100006 C 735.455017 402.579987 734.284973 401.149994 733.89502 399.329987 C 733.63501 398.290009 733.63501 395.429993 733.63501 392.309998 C 733.63501 387.630005 733.765015 383.079987 733.89502 378.399994 C 733.89502 374.369995 734.155029 370.209991 734.155029 366.049988 C 734.155029 361.5 733.505005 358.899994 732.724976 357.079987 C 732.075012 355.390015 730.905029 353.700012 729.474976 352.529999 C 724.275024 347.589996 716.344971 347.329987 714.655029 347.329987 C 709.974976 347.329987 706.205017 348.5 702.304993 351.230011 C 700.35498 352.529999 699.315002 353.570007 698.534973 354.220001 C 697.36499 355.390015 696.455017 356.299988 695.804993 356.820007 C 695.414978 356.950012 695.155029 357.079987 695.025024 357.079987 C 694.505005 357.079987 693.724976 356.820007 693.724976 355.910004 C 693.724976 354.220001 693.85498 352.660004 693.85498 351.100006 C 694.375 342.519989 694.244995 333.679993 694.375 324.839996 C 694.505005 322.369995 694.505005 320.029999 694.765015 317.559998 C 694.765015 315.869995 695.025024 314.179993 695.025024 312.48999 C 695.025024 311.839996 695.284973 309.76001 692.945007 309.890015 Z M 614.684998 384.769989 C 614.684998 392.179993 615.075012 396.339996 612.344971 399.200012 C 609.875 401.799988 604.804993 402.190002 604.414978 402.320007 C 602.724976 402.450012 599.86499 402.579987 599.734985 405.049988 C 599.734985 406.220001 600.64502 407.390015 602.724976 407.390015 C 606.10498 407.390015 609.35498 406.869995 612.60498 406.480011 C 616.375 406.089996 620.275024 405.959991 624.044983 405.959991 C 630.414978 405.959991 636.655029 406.480011 643.284973 406.480011 C 645.755005 406.480011 646.664978 405.570007 646.664978 404.269989 C 646.664978 402.709991 645.36499 401.929993 645.10498 401.799988 C 644.065002 401.410004 640.684998 401.279999 637.174988 400.76001 C 635.61499 400.5 633.924988 400.109985 632.755005 399.070007 C 631.325012 397.899994 631.195007 396.079987 631.065002 392.440002 C 630.934998 388.410004 631.065002 384.25 630.934998 380.350006 C 630.804993 362.670013 630.804993 344.730011 630.804993 327.309998 C 630.804993 321.980011 632.234985 321.459991 639.775024 321.459991 C 646.664978 321.459991 652.255005 322.109985 655.11499 323.019989 C 659.405029 324.190002 661.094971 327.179993 662.13501 331.470001 C 662.655029 333.420013 663.044983 336.410004 664.994995 336.540009 C 665.255005 336.540009 666.164978 336.279999 666.554993 335.23999 C 666.815002 334.589996 666.945007 330.559998 667.075012 327.179993 C 667.075012 324.709991 667.205017 322.23999 667.465027 319.769989 C 667.594971 317.559998 667.984985 315.350006 667.984985 313.140015 C 667.984985 311.450012 667.335022 310.799988 666.294983 310.670013 C 664.60498 310.670013 663.955017 312.75 663.825012 313.01001 C 662.655029 315.350006 661.094971 316.779999 656.155029 316.779999 C 651.734985 316.779999 647.315002 316.519989 642.765015 316.519989 C 635.484985 316.519989 628.205017 316.779999 621.054993 316.779999 C 614.945007 316.779999 608.835022 316.649994 602.594971 316.519989 C 599.60498 316.390015 596.61499 316.519989 593.625 316.390015 C 590.89502 316.26001 590.375 315.350006 588.945007 313.140015 C 588.294983 312.230011 586.994995 310.799988 585.695007 310.929993 C 583.875 311.190002 583.094971 313.920013 583.094971 314.049988 C 582.054993 316.779999 581.275024 319.640015 580.494995 322.5 C 578.804993 327.829987 576.335022 334.589996 576.205017 335.890015 C 576.205017 336.670013 576.724976 337.709991 577.505005 337.709991 C 578.804993 337.709991 579.585022 336.279999 580.755005 334.459991 C 582.315002 332.380005 584.39502 329.130005 586.085022 327.179993 C 591.544983 321.589996 600.255005 321.850006 602.075012 321.720001 C 603.765015 321.589996 605.585022 321.589996 607.275024 321.589996 C 610.39502 321.589996 612.734985 321.850006 613.775024 322.76001 C 614.945007 323.670013 614.945007 324.970001 614.945007 328.350006 C 614.945007 346.679993 614.684998 361.23999 614.684998 378.01001 Z"/>
            <path id="Handler" fill="#005ca8" fill-rule="evenodd" stroke="none" d="M 924.554993 460.210022 C 923.125 459.950012 921.955017 461.77002 920.655029 463.070007 C 916.494995 467.48999 912.465027 468.789978 910.64502 469.570007 C 909.344971 469.960022 906.35498 470.609985 906.35498 472.559998 C 906.35498 472.950012 906.484985 473.600006 907.13501 474.25 C 907.525024 474.640015 907.655029 474.640015 908.174988 474.899994 C 912.205017 476.97998 912.85498 479.059998 912.85498 483.350006 C 912.85498 488.160004 912.724976 492.580017 912.594971 496.869995 C 912.594971 499.210022 912.594971 513.119995 911.424988 515.589966 C 910.38501 518.320007 905.445007 519.22998 905.445007 519.22998 C 904.405029 519.48999 903.36499 519.359985 902.715027 520.400024 C 902.585022 520.789978 902.455017 521.179993 902.455017 521.440002 C 902.455017 521.960022 902.844971 523.390015 904.405029 523.390015 C 904.794983 523.390015 905.315002 523.26001 905.705017 523.26001 C 908.174988 522.869995 910.38501 522.73999 912.724976 522.47998 C 915.455017 522.219971 918.315002 522.089966 921.174988 522.089966 C 923.905029 522.089966 926.375 522.219971 928.974976 522.47998 C 931.315002 522.609985 933.655029 523 935.994995 523 C 936.515015 523 937.815002 523.130005 938.594971 521.960022 C 938.984985 521.440002 938.984985 521.179993 938.984985 520.919983 C 938.984985 520.01001 938.594971 519.359985 937.815002 519.099976 C 937.164978 518.839966 936.255005 518.969971 934.695007 518.839966 C 931.705017 518.710022 926.63501 517.929993 925.335022 514.679993 C 924.684998 513.119995 924.684998 510.910004 924.684998 509.089996 C 924.684998 503.890015 924.945007 499.210022 925.075012 494.27002 C 925.465027 484.26001 924.815002 477.890015 929.10498 474.51001 C 929.36499 474.25 930.534973 473.470001 931.835022 473.470001 C 934.044983 473.470001 936.255005 475.549988 938.205017 477.109985 C 940.674988 478.929993 942.234985 479.320007 943.794983 479.320007 C 948.215027 479.320007 950.815002 476.070007 950.815002 471.910004 C 950.815002 466.580017 946.914978 463.200012 941.974976 463.200012 C 939.244995 463.200012 936.64502 463.97998 931.965027 467.75 C 930.794983 468.660004 929.755005 469.570007 928.585022 470.47998 C 927.674988 471.130005 927.414978 471.52002 926.765015 471.52002 C 926.244995 471.52002 925.335022 471.26001 925.335022 469.960022 C 925.335022 469.179993 925.465027 468.399994 925.594971 467.75 C 925.724976 466.450012 925.85498 465.279999 925.85498 464.109985 C 925.85498 463.460022 925.984985 462.940002 925.984985 462.289978 C 925.984985 460.859985 925.075012 460.339996 924.554993 460.210022 Z M 890.494995 485.039978 C 892.445007 485.039978 893.875 485.299988 894.784973 485.039978 C 895.695007 484.649994 896.215027 483.609985 896.215027 481.01001 C 896.215027 476.720001 893.744995 473.210022 892.835022 472.039978 C 890.494995 468.789978 883.994995 462.679993 873.335022 462.679993 C 860.724976 462.679993 850.065002 471.390015 845.775024 483.089996 C 843.825012 488.419983 843.695007 493.48999 843.695007 495.440002 C 843.695007 512.210022 853.965027 519.880005 859.945007 522.73999 C 863.585022 524.429993 867.094971 525.339966 870.994995 525.339966 C 874.765015 525.339966 877.755005 524.559998 881.13501 523.390015 C 886.724976 521.309998 889.974976 518.580017 894.13501 514.289978 C 895.695007 512.599976 896.734985 511.559998 896.734985 510.52002 C 896.86499 509.47998 896.085022 508.700012 895.044983 508.700012 C 894.005005 508.700012 893.094971 509.609985 892.184998 510.130005 C 885.684998 514.549988 879.965027 515.719971 876.715027 515.719971 C 871.255005 515.719971 867.484985 513.25 865.924988 512.080017 C 856.304993 504.929993 856.565002 492.059998 856.565002 489.070007 C 856.565002 489.070007 856.434998 486.080017 858.255005 485.559998 C 858.905029 485.299988 869.695007 485.169983 876.195007 485.169983 C 880.094971 485.169983 883.86499 485.169983 887.63501 485.039978 Z M 858.775024 477.109985 C 861.505005 470.47998 868.005005 466.059998 875.284973 465.929993 C 876.585022 465.929993 880.61499 465.929993 882.955017 469.570007 C 883.994995 471.130005 884.125 472.429993 884.125 473.210022 C 884.125 473.859985 884.125 475.029999 883.344971 476.330017 C 881.784973 479.320007 878.275024 479.710022 875.025024 480.22998 C 869.044983 481.27002 864.755005 481.660004 862.284973 481.660004 C 861.505005 481.660004 858.38501 481.919983 858.38501 479.059998 C 858.255005 478.149994 858.64502 477.369995 858.775024 477.109985 Z M 815.61499 454.75 C 815.61499 464.23999 815.35498 473.98999 815.35498 483.609985 C 815.484985 497 815.744995 510.390015 814.835022 514.549988 C 813.794983 518.969971 808.594971 519.22998 807.684998 519.359985 C 807.424988 519.359985 804.565002 519.48999 804.434998 521.830017 C 804.434998 522.47998 804.695007 523.650024 806.255005 523.650024 C 807.424988 523.650024 808.594971 523.390015 808.984985 523.390015 C 812.36499 522.73999 817.434998 522.609985 825.494995 522.609985 C 828.094971 522.609985 830.565002 522.73999 833.034973 523 C 834.335022 523.130005 835.505005 523.390015 836.804993 523.390015 C 837.974976 523.390015 839.405029 522.609985 839.405029 521.570007 C 839.405029 520.660034 838.625 519.75 837.974976 519.48999 C 837.325012 519.22998 836.674988 519.22998 835.89502 519.099976 C 832.64502 518.839966 830.565002 517.669983 829.784973 516.369995 C 828.35498 514.419983 828.35498 508.179993 828.35498 505.970001 C 828.094971 498.950012 828.224976 491.929993 828.224976 485.039978 C 828.224976 473.859985 827.965027 462.809998 828.224976 451.630005 C 828.224976 446.299988 828.484985 440.710022 828.61499 435.51001 C 828.744995 433.559998 828.875 431.609985 828.875 429.399994 C 828.875 428.880005 828.875 427.320007 826.794983 427.320007 C 825.755005 427.320007 824.195007 428.359985 822.11499 429.529999 C 820.945007 430.179993 817.955017 432 814.184998 433.299988 C 811.974976 434.210022 809.63501 434.600006 808.984985 435.119995 C 808.594971 435.51001 808.205017 436.029999 808.205017 436.549988 C 808.205017 438.630005 811.065002 439.149994 811.195007 439.149994 C 813.405029 439.929993 814.445007 440.710022 814.965027 441.75 C 815.744995 443.049988 815.61499 444.73999 815.61499 446.299988 Z M 792.60498 511.299988 C 792.60498 506.359985 792.734985 501.289978 792.86499 496.350006 C 792.994995 481.789978 792.86499 467.22998 793.125 452.539978 C 793.125 448.119995 793.255005 443.440002 793.515015 439.02002 C 793.64502 435.899994 793.905029 432.910004 793.905029 429.789978 C 793.905029 428.22998 792.994995 427.450012 791.434998 427.450012 C 789.744995 427.450012 786.494995 428.22998 786.494995 428.22998 C 783.89502 428.619995 780.64502 428.619995 779.994995 428.619995 C 776.61499 428.619995 773.625 428.359985 772.455017 429.01001 C 771.544983 429.529999 771.414978 430.570007 771.414978 430.960022 C 771.414978 432.649994 772.455017 432.779999 773.755005 433.039978 C 775.445007 433.429993 776.875 433.559998 778.565002 433.820007 C 780.38501 434.210022 781.164978 435.119995 781.164978 438.369995 C 781.164978 443.440002 781.034973 448.899994 780.905029 453.839996 C 780.905029 455.529999 780.775024 457.220001 780.775024 459.039978 C 780.775024 461.899994 780.905029 463.589996 779.734985 464.369995 C 779.474976 464.5 778.825012 464.76001 778.174988 464.76001 C 777.005005 464.76001 775.965027 464.23999 773.88501 463.720001 C 770.375 462.940002 767.905029 462.809998 766.344971 462.809998 C 759.455017 462.809998 754.38501 465.279999 752.044983 466.450012 C 736.965027 474.380005 735.664978 490.109985 735.664978 495.570007 C 735.664978 513.77002 747.625 520.660034 753.994995 523.130005 C 758.155029 524.559998 761.14502 524.820007 763.094971 524.820007 C 768.034973 524.820007 772.065002 523.26001 773.755005 522.47998 C 775.315002 521.700012 775.705017 521.570007 777.13501 520.660034 C 778.304993 519.880005 778.955017 519.359985 779.734985 519.22998 C 780.38501 519.22998 780.775024 519.619995 780.775024 520.789978 C 780.775024 523.26001 780.125 524.690002 781.424988 525.469971 C 781.945007 525.859985 782.075012 525.859985 782.465027 525.859985 C 782.724976 525.859985 783.11499 525.72998 783.63501 525.599976 C 785.195007 525.080017 786.755005 524.820007 788.184998 524.299988 C 790.784973 523.52002 793.255005 522.609985 795.724976 521.960022 C 797.934998 521.309998 801.054993 520.530029 801.705017 520.01001 C 801.835022 519.880005 802.224976 519.48999 802.224976 518.969971 C 802.224976 518.450012 801.835022 517.02002 800.275024 516.890015 C 799.625 516.890015 798.974976 517.150024 798.325012 517.410034 C 797.155029 517.669983 796.375 517.799988 795.724976 517.799988 C 792.215027 517.799988 792.60498 514.160034 792.60498 513.380005 Z M 766.474976 466.970001 C 773.10498 466.839996 776.875 470.089996 778.434998 472.299988 C 781.034973 475.940002 780.515015 481.399994 780.515015 482.570007 C 780.38501 485.820007 780.38501 488.940002 780.38501 492.059998 C 780.38501 495.309998 780.64502 508.700012 779.86499 512.339966 C 779.60498 513.51001 779.344971 514.289978 778.565002 515.070007 C 777.39502 516.369995 773.755005 518.320007 769.335022 518.320007 C 765.304993 518.320007 761.275024 516.890015 757.89502 514.549988 C 749.575012 508.700012 748.664978 500.380005 748.664978 491.02002 C 748.664978 487.51001 748.924988 485.429993 749.184998 483.869995 C 749.575012 482.309998 750.484985 478.149994 753.215027 474.119995 C 754.905029 471.649994 758.804993 467.22998 766.474976 466.970001 Z M 666.765015 496.73999 C 666.765015 500.25 666.89502 503.76001 666.89502 507.27002 C 667.025024 512.210022 667.025024 514.679993 665.594971 516.76001 C 664.294983 518.580017 663.255005 518.580017 661.304993 519.359985 C 660.005005 519.880005 659.484985 520.400024 659.484985 521.179993 C 659.484985 521.960022 659.744995 523 661.174988 523 C 661.825012 523 662.474976 522.869995 662.994995 522.869995 C 666.63501 522.609985 669.88501 522.219971 673.265015 522.219971 C 675.994995 522.219971 678.85498 522.47998 681.455017 522.73999 C 683.534973 522.869995 685.484985 523.130005 687.955017 523.130005 C 688.344971 523.130005 690.554993 523.26001 690.554993 521.440002 C 690.554993 519.75 688.734985 519.75 686.13501 519.099976 C 680.155029 517.669983 680.025024 514.160034 679.765015 511.429993 C 679.505005 508.309998 679.505005 505.450012 679.375 502.460022 C 679.244995 498.820007 679.11499 495.179993 679.11499 491.539978 C 679.11499 485.169983 678.85498 477.630005 684.575012 473.470001 C 688.085022 471 691.85498 470.869995 693.674988 470.869995 C 697.315002 470.73999 700.044983 471.910004 701.085022 472.429993 C 706.284973 475.160004 706.674988 479.839996 706.804993 485.169983 C 706.934998 488.940002 707.065002 492.710022 707.065002 496.47998 C 707.065002 499.859985 706.934998 503.109985 706.804993 506.48999 C 706.544983 511.820007 706.804993 513.900024 704.724976 516.23999 C 703.034973 518.190002 700.565002 518.710022 699.525024 518.969971 C 698.484985 519.359985 697.445007 519.619995 697.445007 520.789978 C 697.445007 522.869995 699.914978 522.609985 700.304993 522.609985 C 705.375 522.609985 709.534973 521.960022 713.695007 521.960022 C 716.294983 521.960022 718.89502 522.089966 721.625 522.349976 C 723.184998 522.47998 724.875 522.73999 726.695007 522.73999 C 726.955017 522.73999 728.64502 522.73999 728.64502 521.179993 C 728.64502 520.27002 727.86499 519.75 727.734985 519.619995 C 726.955017 519.22998 726.304993 519.099976 724.875 518.969971 C 721.10498 518.320007 719.804993 517.150024 719.284973 515.460022 C 719.025024 514.289978 719.025024 513.51001 719.025024 512.210022 C 719.025024 507.529999 719.284973 503.630005 719.414978 499.339996 C 719.674988 493.880005 719.674988 488.289978 719.674988 482.700012 C 719.674988 481.660004 719.804993 478.799988 719.155029 475.809998 C 717.335022 467.22998 710.575012 463.200012 701.734985 463.200012 C 694.585022 463.200012 689.125 466.190002 686.914978 467.359985 C 685.35498 468.27002 683.924988 469.309998 682.494995 470.47998 C 682.36499 470.47998 680.025024 472.299988 679.89502 472.299988 C 679.89502 472.299988 679.765015 472.429993 679.375 472.429993 C 678.85498 472.429993 678.594971 472.169983 678.594971 471.779999 C 678.594971 471.52002 678.984985 467.359985 679.375 465.279999 C 679.63501 463.850006 679.89502 463.200012 679.89502 462.419983 C 679.89502 461.25 678.85498 460.859985 678.335022 460.859985 C 677.034973 460.859985 676.38501 462.419983 674.695007 464.5 C 673.005005 466.450012 669.755005 469.570007 663.905029 472.690002 C 662.734985 473.339996 660.655029 474.119995 660.655029 475.419983 C 660.655029 477.5 662.734985 477.76001 662.994995 477.76001 C 666.505005 478.929993 666.765015 481.660004 666.765015 482.830017 C 666.89502 484.779999 666.89502 486.600006 666.765015 488.549988 Z M 642.844971 504.149994 C 642.844971 501.549988 643.10498 498.820007 643.234985 496.089996 C 643.36499 492.190002 643.494995 488.289978 643.88501 484.390015 C 644.14502 481.140015 644.534973 477.890015 644.534973 474.51001 C 644.534973 472.820007 644.664978 469.960022 641.414978 466.970001 C 638.945007 464.76001 635.174988 462.940002 627.765015 462.940002 C 623.994995 462.940002 609.695007 463.070007 601.505005 474.25 C 600.465027 475.679993 598.38501 479.190002 598.255005 481.01001 C 598.255005 482.960022 599.554993 484 601.375 484 C 603.065002 484 607.094971 483.089996 609.304993 479.450012 C 610.215027 477.890015 610.734985 476.070007 611.64502 474.380005 C 614.63501 467.75 620.875 467.359985 623.344971 467.359985 C 628.544983 467.359985 630.10498 469.440002 630.88501 471.52002 C 632.054993 474.380005 632.054993 477.630005 632.054993 483.47998 C 632.054993 486.859985 631.664978 489.330017 630.625 490.5 C 629.585022 491.669983 627.244995 492.059998 626.85498 492.059998 C 618.534973 494.399994 610.085022 499.600006 608.005005 501.029999 C 601.11499 505.970001 599.684998 511.039978 599.684998 514.940002 C 599.684998 524.299988 608.525024 524.950012 611.38501 524.950012 C 617.36499 525.080017 622.565002 521.960022 623.994995 521.179993 C 625.294983 520.400024 626.594971 519.619995 627.765015 518.710022 C 629.195007 517.539978 629.715027 516.890015 630.755005 516.890015 C 632.054993 516.890015 631.794983 517.669983 632.184998 518.580017 C 633.094971 520.27002 636.085022 524.039978 641.674988 524.169983 C 646.484985 524.169983 650.255005 521.700012 651.554993 520.789978 C 654.414978 518.839966 655.585022 516.890015 656.234985 515.589966 C 656.36499 515.460022 656.88501 514.419983 656.88501 513.51001 C 656.88501 512.339966 655.455017 511.950012 655.195007 511.950012 C 654.414978 511.950012 653.89502 512.859985 652.594971 513.77002 C 650.775024 515.070007 649.215027 515.330017 648.174988 515.330017 C 646.35498 515.330017 644.275024 514.160034 643.36499 512.469971 C 642.844971 511.299988 642.844971 509.350006 642.844971 509.089996 Z M 628.544983 495.179993 C 629.195007 495.179993 629.715027 495.179993 630.234985 495.570007 C 631.015015 496.220001 631.275024 497.390015 631.275024 499.470001 C 631.275024 504.799988 631.015015 511.820007 626.205017 515.460022 C 624.515015 516.890015 622.565002 517.539978 620.224976 517.539978 C 617.88501 517.539978 612.684998 516.76001 612.684998 510.649994 C 612.684998 507.399994 614.244995 503.109985 620.224976 498.690002 C 623.86499 496.089996 626.594971 495.309998 628.544983 495.179993 Z M 586.554993 522.869995 C 587.335022 523 587.984985 523.130005 588.63501 523.130005 C 590.455017 523.130005 591.10498 521.570007 591.10498 520.789978 C 591.10498 518.710022 587.075012 518.320007 585.775024 518.059998 C 585.255005 517.929993 580.835022 517.150024 579.405029 514.030029 C 579.015015 512.98999 578.88501 511.950012 578.88501 510.910004 C 578.88501 499.080017 579.534973 487.640015 579.534973 476.330017 C 579.534973 466.059998 579.015015 455.789978 579.534973 445.26001 C 579.664978 442.529999 579.794983 440.450012 580.054993 439.410004 C 580.705017 437.070007 583.044983 436.809998 583.695007 436.679993 C 586.945007 435.899994 591.494995 435.25 592.14502 434.72998 C 592.664978 434.339996 592.794983 433.429993 592.794983 433.169983 C 592.794983 431.47998 591.10498 431.089996 589.804993 431.089996 C 589.155029 431.089996 588.63501 431.089996 588.11499 431.220001 C 586.294983 431.220001 584.474976 431.220001 582.655029 431.350006 C 579.015015 431.47998 575.505005 431.869995 571.86499 431.869995 C 567.705017 431.869995 563.674988 431.609985 559.64502 431.350006 C 558.085022 431.350006 556.525024 431.089996 555.094971 431.089996 C 553.794983 431.089996 551.844971 431.609985 551.844971 433.169983 C 551.844971 434.98999 553.794983 435.25 554.184998 435.380005 C 556.39502 435.77002 560.554993 435.77002 562.505005 437.460022 C 564.455017 439.149994 563.934998 442.140015 563.934998 444.609985 C 563.934998 450.720001 563.804993 456.700012 563.544983 462.679993 C 563.544983 463.97998 563.544983 465.149994 563.414978 466.450012 C 563.414978 469.309998 563.674988 470.869995 562.63501 472.039978 C 561.724976 473.210022 560.034973 473.080017 559.64502 473.210022 C 554.315002 473.600006 548.984985 473.470001 543.914978 473.470001 C 540.275024 473.470001 536.89502 473.600006 533.255005 473.600006 C 528.575012 473.600006 524.674988 473.72998 522.465027 473.470001 C 519.734985 473.080017 519.994995 471.390015 519.994995 466.190002 C 519.86499 458.52002 519.86499 452.149994 519.86499 445.26001 C 519.86499 440.970001 520.515015 438.369995 522.075012 437.070007 C 523.765015 435.640015 526.755005 435.640015 527.275024 435.51001 C 530.13501 435.380005 532.474976 435.119995 532.474976 433.299988 C 532.474976 432.130005 531.434998 430.960022 529.35498 430.960022 C 527.14502 430.960022 525.065002 431.350006 522.984985 431.47998 C 519.86499 431.73999 516.744995 431.869995 513.625 431.869995 C 510.375 431.869995 507.255005 431.73999 504.13501 431.47998 C 501.404999 431.350006 498.545013 430.960022 495.684998 430.960022 C 494.255005 430.960022 493.86499 430.960022 493.214996 431.350006 C 492.695007 431.609985 492.304993 432.130005 492.304993 432.779999 C 492.304993 433.039978 492.434998 433.690002 492.825012 434.210022 C 493.605011 435.380005 494.38501 435.25 496.595001 435.51001 C 500.234985 436.029999 502.184998 436.419983 503.355011 438.109985 C 504.524994 439.539978 504.524994 441.359985 504.524994 445.26001 C 504.524994 455.27002 503.875 464.76001 503.61499 474.119995 C 503.484985 481.27002 503.61499 488.419983 503.61499 495.830017 C 503.61499 502.460022 503.484985 509.869995 503.095001 511.950012 C 502.704987 514.289978 501.665009 516.890015 496.464996 518.059998 C 494.774994 518.450012 491.785004 518.450012 490.095001 519.619995 C 489.315002 520.140015 489.184998 520.530029 489.184998 521.049988 C 489.184998 521.960022 489.834991 523.26001 491.785004 523.26001 C 492.695007 523.26001 493.475006 523.130005 494.255005 523.130005 C 497.244995 522.73999 499.975006 522.349976 502.834991 522.219971 C 505.565002 521.960022 508.294983 521.830017 511.025024 521.830017 C 514.924988 521.830017 518.825012 522.089966 522.724976 522.47998 C 524.025024 522.609985 525.195007 522.73999 526.494995 522.869995 C 527.664978 523 528.835022 523.130005 530.13501 523.130005 C 532.085022 523.130005 532.734985 522.089966 532.734985 521.049988 C 532.734985 519.880005 532.215027 519.359985 530.39502 518.969971 C 528.575012 518.450012 523.63501 517.669983 521.945007 516.369995 C 521.164978 515.719971 520.64502 514.549988 520.515015 512.339966 C 520.255005 508.049988 520.125 503.76001 520.125 499.470001 C 519.994995 495.570007 519.734985 491.929993 519.734985 488.029999 C 519.734985 485.299988 519.86499 482.830017 520.125 481.919983 C 520.905029 478.669983 525.325012 478.669983 528.575012 478.669983 C 535.335022 478.669983 542.224976 478.799988 548.984985 478.799988 C 551.195007 478.799988 553.405029 478.799988 555.61499 478.669983 C 558.085022 478.669983 560.164978 478.539978 561.075012 478.799988 C 563.414978 479.320007 563.155029 482.570007 563.155029 484.910004 C 563.284973 489.720001 563.544983 494.399994 563.544983 499.210022 C 563.544983 502.589996 563.544983 506.100006 563.414978 509.47998 C 563.284973 511.820007 563.025024 514.419983 560.945007 516.109985 C 559.515015 517.410034 556.784973 517.929993 552.494995 518.580017 C 549.89502 518.969971 548.335022 519.359985 548.335022 521.049988 C 548.335022 522.609985 549.63501 523.26001 550.934998 523.26001 C 553.275024 523.26001 555.484985 522.869995 557.825012 522.609985 C 561.984985 522.219971 566.275024 521.830017 570.434998 521.830017 C 574.335022 521.830017 578.10498 522.089966 581.875 522.47998 Z"/>
        </g>
    </g>
</svg>
